<svg width="734" height="504" viewBox="0 0 734 504" fill="none" xmlns="http://www.w3.org/2000/svg">
<g id="undraw_subscriptions_re_k7jj 1" clip-path="url(#clip0_2_40)">
<g id="Group 16">
<g id="Group 15">
<g id="Bas">
<path id="Ellipse 29" d="M599.381 503.768C673.63 503.768 733.82 495.709 733.82 485.768C733.82 475.827 673.63 467.768 599.381 467.768C525.132 467.768 464.942 475.827 464.942 485.768C464.942 495.709 525.132 503.768 599.381 503.768Z" fill="#E6E6E6"/>
<path id="Path 257" d="M690.009 471.536H676.829L670.561 420.699H690.013L690.009 471.536Z" fill="#FFB8B8"/>
<path id="Path 258" d="M667.409 467.769H692.827V483.769H651.409C651.409 479.526 653.095 475.456 656.095 472.455C659.096 469.455 663.166 467.769 667.409 467.769Z" fill="#2F2E41"/>
<path id="Path 259" d="M555.359 471.536H542.179L535.911 420.699H555.363L555.359 471.536Z" fill="#FFB8B8"/>
<g id="Group 32">
<g id="Group 31">
<g id="Group 30">
<g id="Group 29">
<g id="Group 28">
<g id="Group 27">
<path id="Path 260" d="M532.765 467.769H558.183V483.769H516.761C516.761 479.526 518.447 475.456 521.447 472.455C524.448 469.455 528.518 467.769 532.761 467.769H532.765Z" fill="#2F2E41"/>
</g>
</g>
</g>
</g>
</g>
</g>
<g id="Group 96">
<g id="Group 95">
<g id="Group 94">
<g id="Group 93">
<g id="Group 92">
<g id="Group 91">
<g id="Group 90">
<g id="Group 89">
<g id="Group 88">
<g id="Group 87">
<g id="Group 86">
<g id="Group 85">
<g id="Group 84">
<g id="Group 83">
<g id="Group 82">
<g id="Group 81">
<g id="Group 80">
<g id="Group 79">
<g id="Group 78">
<g id="Group 77">
<g id="Group 76">
<g id="Group 75">
<g id="Group 74">
<g id="Group 73">
<g id="Group 72">
<g id="Group 71">
<g id="Group 70">
<g id="Group 69">
<g id="Group 68">
<g id="Group 67">
<g id="Group 66">
<g id="Group 65">
<g id="Group 64">
<g id="Group 63">
<g id="Group 62">
<g id="Group 61">
<g id="Group 60">
<g id="Group 59">
<g id="Group 58">
<g id="Group 57">
<g id="Group 56">
<g id="Group 55">
<g id="Group 54">
<g id="Group 53">
<g id="Group 52">
<g id="Group 51">
<g id="Group 50">
<g id="Group 49">
<g id="Group 48">
<g id="Group 47">
<g id="Group 46">
<g id="Group 45">
<g id="Group 44">
<g id="Group 43">
<g id="Group 42">
<g id="Group 41">
<g id="Group 40">
<g id="Group 39">
<g id="Group 38">
<g id="Group 37">
<g id="Group 36">
<g id="Group 35">
<g id="Group 34">
<g id="Group 26">
<g id="Group 25">
<g id="Group 24">
<g id="Group 23">
<g id="Group 22">
<g id="Group 21">
<g id="Group 20">
<g id="Group 19">
<g id="Group 18">
<g id="Group 17">
<g id="Group 33">
<g id="Group 102">
<g id="Group 101">
<g id="Group 100">
<g id="Group 99">
<g id="Group 98">
<g id="Group 97">
<path id="Path 265" d="M677.064 457.11C676.052 457.11 675.062 456.816 674.215 456.263C673.368 455.71 672.7 454.921 672.293 453.995L611.872 304.695C611.731 304.371 611.494 304.098 611.193 303.913C610.893 303.728 610.542 303.639 610.19 303.659C609.837 303.679 609.499 303.806 609.221 304.024C608.943 304.242 608.738 304.539 608.634 304.877L559.339 450.227C559.131 450.903 558.787 451.53 558.327 452.069C557.868 452.607 557.304 453.046 556.668 453.358C556.033 453.67 555.341 453.849 554.634 453.884C553.927 453.919 553.221 453.808 552.558 453.56L536.028 447.36C535.131 447.027 534.344 446.451 533.754 445.697C533.164 444.943 532.795 444.04 532.688 443.089C525.251 378.307 590.101 214.789 590.757 213.143L590.939 212.688L650.055 225.765L650.178 225.899C673.763 251.629 693.149 413.911 696.796 446.182C696.932 447.348 696.667 448.525 696.044 449.519C695.422 450.514 694.479 451.267 693.371 451.654L678.78 456.814C678.229 457.009 677.649 457.11 677.064 457.11Z" fill="#2F2E41"/>
</g>
</g>
</g>
</g>
</g>
</g>
</g>
</g>
</g>
</g>
</g>
</g>
</g>
</g>
</g>
</g>
</g>
</g>
</g>
</g>
</g>
</g>
</g>
</g>
</g>
</g>
</g>
</g>
</g>
</g>
</g>
</g>
</g>
</g>
</g>
</g>
</g>
</g>
</g>
</g>
</g>
</g>
</g>
</g>
</g>
</g>
</g>
</g>
</g>
</g>
</g>
</g>
</g>
</g>
</g>
</g>
</g>
</g>
</g>
</g>
</g>
</g>
</g>
</g>
</g>
</g>
</g>
</g>
</g>
</g>
</g>
</g>
</g>
</g>
</g>
</g>
</g>
</g>
</g>
</g>
</g>
<g id="Fond">
<path id="Path 204" d="M45.126 90.253C39.2 90.253 33.332 89.0858 27.857 86.818C22.3821 84.5502 17.4074 81.2263 13.2171 77.0359C9.02677 72.8456 5.70281 67.8709 3.43501 62.396C1.16722 56.921 0 51.053 0 45.127C0 39.201 1.16722 33.333 3.43501 27.858C5.70281 22.3831 9.02677 17.4084 13.2171 13.2181C17.4074 9.02777 22.3821 5.7038 27.857 3.436C33.332 1.16821 39.2 0.0010069 45.126 0.00100708H455.84C461.766 0.0010069 467.634 1.16821 473.109 3.436C478.584 5.7038 483.559 9.02777 487.749 13.2181C491.939 17.4084 495.263 22.3831 497.531 27.858C499.799 33.333 500.966 39.201 500.966 45.127C500.966 51.053 499.799 56.921 497.531 62.396C495.263 67.8709 491.939 72.8456 487.749 77.0359C483.559 81.2263 478.584 84.5502 473.109 86.818C467.634 89.0858 461.766 90.253 455.84 90.253H45.126Z" fill="#E6E6E6"/>
<path id="Path 205" d="M45.126 5.88702C34.7189 5.88702 24.738 10.0212 17.3791 17.3802C10.0202 24.7391 5.88599 34.7199 5.88599 45.127C5.88599 55.5341 10.0202 65.515 17.3791 72.8739C24.738 80.2328 34.7189 84.367 45.126 84.367H455.84C466.247 84.367 476.228 80.2328 483.587 72.8739C490.946 65.515 495.08 55.5341 495.08 45.127C495.08 34.7199 490.946 24.7391 483.587 17.3802C476.228 10.0212 466.247 5.88702 455.84 5.88702H45.126Z" fill="white"/>
<path id="Rectangle 15" d="M169.714 5.88599H168.406V84.366H169.714V5.88599Z" fill="#E6E6E6"/>
<path id="Rectangle 17" d="M332.561 5.88599H331.253V84.366H332.561V5.88599Z" fill="#E6E6E6"/>
<path id="Rectangle 7" d="M331.253 5.88599H169.714V84.366H331.253V5.88599Z" fill="#6C63FF"/>
<path id="Path 198" d="M250.557 21.199C245.81 21.199 241.17 22.6066 237.223 25.2437C233.277 27.8809 230.2 31.6292 228.384 36.0146C226.567 40.4 226.092 45.2256 227.018 49.8812C227.944 54.5367 230.23 58.8131 233.586 62.1696C236.943 65.526 241.219 67.8118 245.875 68.7379C250.53 69.6639 255.356 69.1886 259.741 67.3721C264.127 65.5556 267.875 62.4795 270.512 58.5327C273.149 54.5859 274.557 49.9458 274.557 45.199C274.557 38.8338 272.028 32.7293 267.528 28.2284C263.027 23.7276 256.922 21.199 250.557 21.199V21.199ZM250.557 28.399C251.981 28.399 253.373 28.8213 254.557 29.6124C255.741 30.4036 256.664 31.5281 257.209 32.8437C257.754 34.1593 257.896 35.607 257.619 37.0036C257.341 38.4003 256.655 39.6832 255.648 40.6902C254.641 41.6971 253.358 42.3828 251.962 42.6607C250.565 42.9385 249.117 42.7959 247.802 42.2509C246.486 41.706 245.362 40.7831 244.57 39.5991C243.779 38.4151 243.357 37.023 243.357 35.599C243.357 33.6896 244.116 31.8585 245.466 30.5085C246.816 29.1584 248.648 28.4 250.557 28.4V28.399ZM250.557 63.061C247.713 63.048 244.915 62.3412 242.405 61.002C239.896 59.6628 237.751 57.7317 236.157 55.376C236.272 50.576 245.757 47.934 250.557 47.934C255.357 47.934 264.842 50.576 264.957 55.376C263.361 57.7299 261.216 59.6597 258.707 60.9987C256.198 62.3377 253.401 63.0455 250.557 63.061V63.061Z" fill="white"/>
<path id="Path 200" d="M87.706 21.199C82.9592 21.199 78.3191 22.6066 74.3723 25.2437C70.4255 27.8809 67.3494 31.6292 65.5329 36.0146C63.7164 40.4 63.241 45.2256 64.1671 49.8812C65.0931 54.5367 67.3789 58.8131 70.7354 62.1696C74.0918 65.526 78.3682 67.8118 83.0238 68.7379C87.6793 69.6639 92.5049 69.1886 96.8904 67.3721C101.276 65.5556 105.024 62.4795 107.661 58.5327C110.298 54.5859 111.706 49.9458 111.706 45.199C111.706 38.8338 109.177 32.7293 104.677 28.2284C100.176 23.7276 94.0712 21.199 87.706 21.199ZM87.706 28.399C89.13 28.399 90.5221 28.8213 91.7061 29.6124C92.8901 30.4036 93.8129 31.5281 94.3579 32.8437C94.9028 34.1593 95.0454 35.607 94.7676 37.0036C94.4898 38.4003 93.8041 39.6832 92.7972 40.6902C91.7902 41.6971 90.5073 42.3828 89.1106 42.6607C87.714 42.9385 86.2663 42.7959 84.9507 42.2509C83.635 41.706 82.5105 40.7831 81.7194 39.5991C80.9282 38.4151 80.506 37.023 80.506 35.599C80.506 33.6894 81.2645 31.8581 82.6148 30.5078C83.965 29.1576 85.7964 28.399 87.706 28.399V28.399ZM87.706 63.061C84.8617 63.048 82.0635 62.3412 79.5541 61.002C77.0448 59.6628 74.9 57.7317 73.3059 55.376C73.4209 50.576 82.906 47.934 87.706 47.934C92.506 47.934 101.991 50.576 102.106 55.376C100.51 57.7299 98.3649 59.6597 95.856 60.9987C93.347 62.3377 90.5498 63.0455 87.706 63.061V63.061Z" fill="#E6E6E6"/>
<path id="Path 242" d="M413.253 21.199C408.506 21.199 403.866 22.6066 399.919 25.2437C395.973 27.8809 392.896 31.6292 391.08 36.0146C389.263 40.4 388.788 45.2256 389.714 49.8812C390.64 54.5367 392.926 58.8131 396.282 62.1696C399.639 65.526 403.915 67.8118 408.571 68.7379C413.226 69.6639 418.052 69.1886 422.437 67.3721C426.823 65.5556 430.571 62.4795 433.208 58.5327C435.845 54.5859 437.253 49.9458 437.253 45.199C437.253 38.8338 434.724 32.7293 430.224 28.2284C425.723 23.7276 419.618 21.199 413.253 21.199ZM413.253 28.399C414.677 28.399 416.069 28.8213 417.253 29.6124C418.437 30.4036 419.36 31.5281 419.905 32.8437C420.45 34.1593 420.592 35.607 420.315 37.0036C420.037 38.4003 419.351 39.6832 418.344 40.6902C417.337 41.6971 416.054 42.3828 414.658 42.6607C413.261 42.9385 411.813 42.7959 410.498 42.2509C409.182 41.706 408.058 40.7831 407.266 39.5991C406.475 38.4151 406.053 37.023 406.053 35.599C406.053 33.6894 406.812 31.8581 408.162 30.5078C409.512 29.1576 411.343 28.399 413.253 28.399V28.399ZM413.253 63.061C410.409 63.048 407.61 62.3412 405.101 61.002C402.592 59.6628 400.447 57.7317 398.853 55.376C398.968 50.576 408.453 47.934 413.253 47.934C418.053 47.934 427.538 50.576 427.653 55.376C426.057 57.7299 423.912 59.6597 421.403 60.9987C418.894 62.3377 416.097 63.0455 413.253 63.061V63.061Z" fill="#E6E6E6"/>
<path id="Rectangle 9" d="M272.557 123.143H228.557C225.243 123.143 222.557 125.829 222.557 129.143V173.143C222.557 176.457 225.243 179.143 228.557 179.143H272.557C275.871 179.143 278.557 176.457 278.557 173.143V129.143C278.557 125.829 275.871 123.143 272.557 123.143Z" fill="#6C63FF"/>
<path id="Rectangle 12" d="M435.257 122.963H391.257C387.943 122.963 385.257 125.649 385.257 128.963V172.963C385.257 176.277 387.943 178.963 391.257 178.963H435.257C438.571 178.963 441.257 176.277 441.257 172.963V128.963C441.257 125.649 438.571 122.963 435.257 122.963Z" fill="#E6E6E6"/>
<path id="Rectangle 13" d="M434.055 130.744H393.257V171.542H434.055V130.744Z" fill="white"/>
<path id="Path 202" d="M247.93 159.838L240.855 150.738L244.969 147.538L248.319 151.845L259.637 139.899L263.422 143.484L247.93 159.838Z" fill="white"/>
<path id="Path 203" d="M410.896 159.838L403.821 150.738L407.935 147.538L411.285 151.845L422.602 139.899L426.387 143.484L410.896 159.838Z" fill="#E6E6E6"/>
<path id="Rectangle 18" d="M109.71 122.963H65.71C62.3963 122.963 59.71 125.649 59.71 128.963V172.963C59.71 176.277 62.3963 178.963 65.71 178.963H109.71C113.024 178.963 115.71 176.277 115.71 172.963V128.963C115.71 125.649 113.024 122.963 109.71 122.963Z" fill="#E6E6E6"/>
<path id="Rectangle 19" d="M108.508 130.744H67.71V171.542H108.508V130.744Z" fill="white"/>
<path id="Path 243" d="M85.349 159.838L78.274 150.738L82.388 147.538L85.738 151.845L97.055 139.899L100.84 143.484L85.349 159.838Z" fill="#E6E6E6"/>
<path id="Path 263" d="M482.542 192.23C483.691 191.145 485.064 190.325 486.564 189.828C488.065 189.332 489.655 189.17 491.225 189.354C492.795 189.538 494.305 190.065 495.649 190.896C496.993 191.727 498.139 192.842 499.005 194.164L523.278 189.573L529.666 203.643L495.296 209.643C492.979 210.948 490.265 211.359 487.665 210.798C485.066 210.236 482.763 208.742 481.192 206.596C479.62 204.451 478.89 201.804 479.139 199.157C479.388 196.509 480.599 194.045 482.542 192.23V192.23Z" fill="#FFB8B8"/>
<path id="Path 264" d="M614.486 141.064L614.803 141.545L575.003 167.766L507.839 189.213C506.949 189.499 506.185 190.085 505.678 190.871C505.171 191.657 504.952 192.594 505.058 193.523L506.523 206.143C506.588 206.702 506.769 207.24 507.054 207.725C507.34 208.209 507.723 208.629 508.18 208.957C508.637 209.284 509.158 209.513 509.708 209.628C510.259 209.742 510.827 209.741 511.377 209.623L574.589 196.074C577.649 195.422 580.542 194.148 583.089 192.332L627.799 160.517C630.253 158.768 631.923 156.126 632.449 153.159C632.975 150.191 632.315 147.136 630.612 144.65C628.908 142.165 626.297 140.447 623.34 139.867C620.382 139.286 617.316 139.89 614.799 141.548L614.486 141.064Z" fill="#CCCCCC"/>
<path id="Path 266" d="M626.13 231.033C611.807 231.033 595.839 228.177 590.924 216.391L590.811 216.12L590.964 215.869C594.844 209.503 599.971 198.645 597.215 196.606C591.786 192.592 589.151 185.988 589.385 176.978C589.893 157.419 603.22 140.053 622.548 133.766C627.943 132.039 633.433 130.626 638.991 129.532C643.043 128.714 647.226 128.805 651.239 129.796C655.252 130.787 658.995 132.654 662.201 135.264C665.447 137.891 668.07 141.204 669.883 144.966C671.696 148.727 672.654 152.843 672.687 157.019C672.887 177.919 669.672 207.034 653.187 227.019C652.414 227.946 651.339 228.571 650.151 228.784C642.223 230.219 634.187 230.971 626.13 231.033V231.033Z" fill="#CCCCCC"/>
<path id="Path 267" d="M620.802 230.246C621.581 227.45 623.433 225.074 625.954 223.636C628.475 222.197 631.462 221.812 634.266 222.563C634.838 222.723 635.397 222.93 635.935 223.181L654.365 206.408L667.183 215.043L640.826 238.367C639.636 240.512 637.762 242.198 635.503 243.157C633.244 244.115 630.73 244.29 628.36 243.655C626.979 243.277 625.687 242.629 624.559 241.749C623.43 240.869 622.487 239.774 621.784 238.527C621.081 237.28 620.633 235.906 620.464 234.485C620.296 233.063 620.41 231.623 620.802 230.246V230.246Z" fill="#FFB8B8"/>
<path id="Path 268" d="M651.446 230.458C650.249 230.458 649.089 230.043 648.163 229.284L640.895 223.345C640.289 222.85 639.803 222.224 639.473 221.515C639.144 220.805 638.979 220.03 638.991 219.248C639.003 218.465 639.192 217.696 639.543 216.997C639.895 216.298 640.4 215.687 641.021 215.211L671.505 191.831C671.866 191.553 672.104 191.143 672.165 190.691C672.226 190.239 672.106 189.781 671.832 189.416L653.017 164.541C650.831 161.661 649.734 158.1 649.922 154.489C650.109 150.877 651.568 147.449 654.04 144.81C656.644 141.998 660.209 140.268 664.029 139.962C667.849 139.657 671.645 140.799 674.662 143.161L674.781 143.287L694.428 171.42C696.553 173.086 698.263 175.22 699.427 177.656C700.59 180.093 701.175 182.765 701.134 185.464C701.094 188.164 700.431 190.818 699.195 193.218C697.96 195.619 696.186 197.701 694.013 199.303L654.532 229.437C653.638 230.097 652.556 230.454 651.444 230.454L651.446 230.458Z" fill="#CCCCCC"/>
</g>
<g id="Haut">
<g id="Haut_2">
<path id="Path 261" d="M599.381 94.445V88.68C599.381 78.8193 603.298 69.3624 610.271 62.3898C617.243 55.4172 626.7 51.5 636.561 51.5V51.5C646.422 51.5 655.879 55.4172 662.851 62.3898C669.824 69.3624 673.741 78.8193 673.741 88.68V94.444C673.741 101.552 670.917 108.368 665.891 113.394C660.866 118.42 654.049 121.244 646.941 121.244H626.185C619.077 121.244 612.261 118.42 607.235 113.394C602.209 108.368 599.385 101.552 599.385 94.444L599.381 94.445Z" fill="#2F2E41"/>
<path id="Ellipse 36" d="M636.562 123.233C652.201 123.233 664.878 110.556 664.878 94.917C664.878 79.2785 652.201 66.601 636.562 66.601C620.924 66.601 608.246 79.2785 608.246 94.917C608.246 110.556 620.924 123.233 636.562 123.233Z" fill="#FFB8B8"/>
<g id="Hat">
<path id="Path 269" d="M611.48 86.951V72.902L636.562 61.946L660.478 72.898V86.947C660.478 87.2498 660.418 87.5497 660.302 87.8295C660.187 88.1092 660.017 88.3634 659.803 88.5776C659.588 88.7917 659.334 88.9616 659.054 89.0775C658.775 89.1933 658.475 89.253 658.172 89.253H613.786C613.483 89.253 613.183 89.1933 612.904 89.0775C612.624 88.9616 612.37 88.7917 612.155 88.5776C611.941 88.3634 611.771 88.1092 611.656 87.8295C611.54 87.5497 611.48 87.2498 611.48 86.947V86.951Z" fill="#2F2E41"/>
</g>
<path id="Ellipse 30" d="M658.019 65.735C666.702 65.735 673.741 58.696 673.741 50.013C673.741 41.33 666.702 34.291 658.019 34.291C649.336 34.291 642.297 41.33 642.297 50.013C642.297 58.696 649.336 65.735 658.019 65.735Z" fill="#2F2E41"/>
</g>
<path id="Path 185" d="M643.507 41.579C643.506 39.253 644.021 36.9558 645.015 34.853C646.01 32.7503 647.459 30.8946 649.257 29.4196C651.056 27.9447 653.159 26.8874 655.416 26.3241C657.673 25.7608 660.026 25.7054 662.307 26.162C660.294 25.2135 658.103 24.7033 655.878 24.6652C653.653 24.6271 651.445 25.0619 649.401 25.9408C647.357 26.8197 645.523 28.1227 644.02 29.7637C642.517 31.4046 641.38 33.346 640.683 35.4593C639.987 37.5727 639.747 39.8099 639.98 42.0228C640.213 44.2358 640.913 46.374 642.034 48.2961C643.155 50.2182 644.672 51.8802 646.484 53.1723C648.295 54.4643 650.361 55.3569 652.543 55.791C649.844 54.5236 647.561 52.5141 645.962 49.9974C644.362 47.4808 643.512 44.5609 643.511 41.579H643.507Z" fill="#2F2E41"/>
</g>
</g>
</g>
</g>
<defs>
<clipPath id="clip0_2_40">
<rect width="733.82" height="503.768" fill="white"/>
</clipPath>
</defs>
</svg>
